<mxfile host="app.diagrams.net" agent="Mozilla/5.0 (Windows NT 10.0; Win64; x64) AppleWebKit/537.36 (KHTML, like Gecko) Chrome/134.0.0.0 Safari/537.36" version="26.1.3">
  <diagram name="Page-1" id="3tSoq26dWdxgxFkUmX4N">
    <mxGraphModel dx="3452" dy="2562" grid="1" gridSize="10" guides="1" tooltips="1" connect="1" arrows="1" fold="1" page="1" pageScale="1" pageWidth="827" pageHeight="1169" math="0" shadow="0">
      <root>
        <mxCell id="0" />
        <mxCell id="1" parent="0" />
        <mxCell id="phIQyZDRnnglo2sH2MjQ-1" value="User is registered" style="shape=note2;boundedLbl=1;whiteSpace=wrap;html=1;size=25;verticalAlign=top;align=center;" parent="1" vertex="1">
          <mxGeometry x="30" y="40" width="120" height="60" as="geometry" />
        </mxCell>
        <mxCell id="phIQyZDRnnglo2sH2MjQ-2" value="" style="endArrow=none;startArrow=none;endFill=0;startFill=0;endSize=8;html=1;verticalAlign=bottom;dashed=1;labelBackgroundColor=none;dashPattern=10 10;rounded=0;" parent="1" source="phIQyZDRnnglo2sH2MjQ-3" edge="1">
          <mxGeometry width="160" relative="1" as="geometry">
            <mxPoint x="150" y="80" as="sourcePoint" />
            <mxPoint x="149" y="80" as="targetPoint" />
          </mxGeometry>
        </mxCell>
        <mxCell id="phIQyZDRnnglo2sH2MjQ-12" style="edgeStyle=orthogonalEdgeStyle;rounded=0;orthogonalLoop=1;jettySize=auto;html=1;entryX=0.5;entryY=0;entryDx=0;entryDy=0;" parent="1" source="phIQyZDRnnglo2sH2MjQ-9" target="phIQyZDRnnglo2sH2MjQ-11" edge="1">
          <mxGeometry relative="1" as="geometry">
            <mxPoint x="320" y="300" as="targetPoint" />
          </mxGeometry>
        </mxCell>
        <mxCell id="phIQyZDRnnglo2sH2MjQ-9" value="Display Profile Setup Screen" style="html=1;align=center;verticalAlign=top;rounded=1;absoluteArcSize=1;arcSize=10;dashed=0;whiteSpace=wrap;" parent="1" vertex="1">
          <mxGeometry x="250" y="180" width="140" height="40" as="geometry" />
        </mxCell>
        <mxCell id="Z18ovfmDug6ZdBSYFSkU-5" style="edgeStyle=orthogonalEdgeStyle;rounded=0;orthogonalLoop=1;jettySize=auto;html=1;entryX=0.5;entryY=0;entryDx=0;entryDy=0;" edge="1" parent="1" source="phIQyZDRnnglo2sH2MjQ-11" target="phIQyZDRnnglo2sH2MjQ-62">
          <mxGeometry relative="1" as="geometry" />
        </mxCell>
        <mxCell id="phIQyZDRnnglo2sH2MjQ-11" value="User answers&#xa;Â questions" style="rhombus;" parent="1" vertex="1">
          <mxGeometry x="273.75" y="260" width="92.5" height="100" as="geometry" />
        </mxCell>
        <mxCell id="Z18ovfmDug6ZdBSYFSkU-4" style="edgeStyle=orthogonalEdgeStyle;rounded=0;orthogonalLoop=1;jettySize=auto;html=1;entryX=0;entryY=0.5;entryDx=0;entryDy=0;" edge="1" parent="1" source="phIQyZDRnnglo2sH2MjQ-19" target="phIQyZDRnnglo2sH2MjQ-9">
          <mxGeometry relative="1" as="geometry">
            <Array as="points">
              <mxPoint y="300" />
              <mxPoint y="200" />
            </Array>
          </mxGeometry>
        </mxCell>
        <mxCell id="phIQyZDRnnglo2sH2MjQ-37" value="Yes" style="text;html=1;align=center;verticalAlign=middle;resizable=0;points=[];autosize=1;strokeColor=none;fillColor=none;" parent="1" vertex="1">
          <mxGeometry x="320" y="360" width="40" height="30" as="geometry" />
        </mxCell>
        <mxCell id="phIQyZDRnnglo2sH2MjQ-48" style="edgeStyle=orthogonalEdgeStyle;rounded=0;orthogonalLoop=1;jettySize=auto;html=1;entryX=0.5;entryY=0;entryDx=0;entryDy=0;" parent="1" source="phIQyZDRnnglo2sH2MjQ-3" target="phIQyZDRnnglo2sH2MjQ-9" edge="1">
          <mxGeometry relative="1" as="geometry">
            <Array as="points">
              <mxPoint x="320" y="80" />
              <mxPoint x="320" y="80" />
            </Array>
          </mxGeometry>
        </mxCell>
        <mxCell id="phIQyZDRnnglo2sH2MjQ-92" style="edgeStyle=orthogonalEdgeStyle;rounded=0;orthogonalLoop=1;jettySize=auto;html=1;exitX=1;exitY=0.5;exitDx=0;exitDy=0;" parent="1" source="phIQyZDRnnglo2sH2MjQ-62" edge="1">
          <mxGeometry relative="1" as="geometry">
            <mxPoint x="550" y="470" as="targetPoint" />
            <mxPoint x="390" y="470" as="sourcePoint" />
          </mxGeometry>
        </mxCell>
        <mxCell id="phIQyZDRnnglo2sH2MjQ-58" style="edgeStyle=orthogonalEdgeStyle;rounded=0;orthogonalLoop=1;jettySize=auto;html=1;exitX=0;exitY=0.5;exitDx=0;exitDy=0;entryX=1;entryY=0.5;entryDx=0;entryDy=0;" parent="1" source="phIQyZDRnnglo2sH2MjQ-11" target="phIQyZDRnnglo2sH2MjQ-19" edge="1">
          <mxGeometry relative="1" as="geometry">
            <Array as="points">
              <mxPoint x="195" y="310" />
            </Array>
          </mxGeometry>
        </mxCell>
        <mxCell id="phIQyZDRnnglo2sH2MjQ-59" value="No" style="text;html=1;align=center;verticalAlign=middle;resizable=0;points=[];autosize=1;strokeColor=none;fillColor=none;" parent="1" vertex="1">
          <mxGeometry x="240" y="285" width="40" height="30" as="geometry" />
        </mxCell>
        <mxCell id="phIQyZDRnnglo2sH2MjQ-75" value="No" style="text;html=1;align=center;verticalAlign=middle;resizable=0;points=[];autosize=1;strokeColor=none;fillColor=none;" parent="1" vertex="1">
          <mxGeometry x="230" y="678" width="40" height="30" as="geometry" />
        </mxCell>
        <mxCell id="phIQyZDRnnglo2sH2MjQ-91" value="Yes" style="text;html=1;align=center;verticalAlign=middle;resizable=0;points=[];autosize=1;strokeColor=none;fillColor=none;" parent="1" vertex="1">
          <mxGeometry x="310" y="750" width="40" height="30" as="geometry" />
        </mxCell>
        <mxCell id="phIQyZDRnnglo2sH2MjQ-94" style="edgeStyle=orthogonalEdgeStyle;rounded=0;orthogonalLoop=1;jettySize=auto;html=1;exitX=0.5;exitY=1;exitDx=0;exitDy=0;" parent="1" source="phIQyZDRnnglo2sH2MjQ-93" target="phIQyZDRnnglo2sH2MjQ-95" edge="1">
          <mxGeometry relative="1" as="geometry">
            <mxPoint x="610" y="560" as="targetPoint" />
          </mxGeometry>
        </mxCell>
        <mxCell id="phIQyZDRnnglo2sH2MjQ-104" style="edgeStyle=orthogonalEdgeStyle;rounded=0;orthogonalLoop=1;jettySize=auto;html=1;exitX=1;exitY=0.5;exitDx=0;exitDy=0;entryX=0.5;entryY=0;entryDx=0;entryDy=0;" parent="1" source="phIQyZDRnnglo2sH2MjQ-93" target="phIQyZDRnnglo2sH2MjQ-105" edge="1">
          <mxGeometry relative="1" as="geometry">
            <mxPoint x="770" y="500" as="targetPoint" />
          </mxGeometry>
        </mxCell>
        <mxCell id="phIQyZDRnnglo2sH2MjQ-93" value="View exhibits information page" style="html=1;align=center;verticalAlign=top;rounded=1;absoluteArcSize=1;arcSize=10;dashed=0;whiteSpace=wrap;" parent="1" vertex="1">
          <mxGeometry x="550" y="450" width="120" height="40" as="geometry" />
        </mxCell>
        <mxCell id="phIQyZDRnnglo2sH2MjQ-95" value="Select &#39;&#39;Add to&lt;div&gt;&amp;nbsp;favourites&#39;&#39;&lt;/div&gt;" style="html=1;align=center;verticalAlign=top;rounded=1;absoluteArcSize=1;arcSize=10;dashed=0;whiteSpace=wrap;" parent="1" vertex="1">
          <mxGeometry x="540" y="560" width="140" height="40" as="geometry" />
        </mxCell>
        <mxCell id="phIQyZDRnnglo2sH2MjQ-99" style="edgeStyle=orthogonalEdgeStyle;rounded=0;orthogonalLoop=1;jettySize=auto;html=1;exitX=0.5;exitY=1;exitDx=0;exitDy=0;entryX=0.5;entryY=0;entryDx=0;entryDy=0;" parent="1" source="phIQyZDRnnglo2sH2MjQ-95" target="phIQyZDRnnglo2sH2MjQ-100" edge="1">
          <mxGeometry relative="1" as="geometry">
            <mxPoint x="610.0050000000001" y="658.02" as="targetPoint" />
          </mxGeometry>
        </mxCell>
        <mxCell id="phIQyZDRnnglo2sH2MjQ-100" value="Update user&#39;s favourite list" style="html=1;align=center;verticalAlign=top;rounded=1;absoluteArcSize=1;arcSize=10;dashed=0;whiteSpace=wrap;" parent="1" vertex="1">
          <mxGeometry x="540.01" y="708" width="140" height="40" as="geometry" />
        </mxCell>
        <mxCell id="phIQyZDRnnglo2sH2MjQ-112" value="Profile and Exhibit Personalization" style="shape=umlFrame;whiteSpace=wrap;html=1;pointerEvents=0;recursiveResize=0;container=1;collapsible=0;width=160;" parent="1" vertex="1">
          <mxGeometry x="-60" y="-20" width="1030" height="1030" as="geometry" />
        </mxCell>
        <mxCell id="phIQyZDRnnglo2sH2MjQ-90" value="Display route" style="html=1;align=center;verticalAlign=top;rounded=1;absoluteArcSize=1;arcSize=10;dashed=0;whiteSpace=wrap;" parent="phIQyZDRnnglo2sH2MjQ-112" vertex="1">
          <mxGeometry x="320" y="940" width="120" height="40" as="geometry" />
        </mxCell>
        <mxCell id="phIQyZDRnnglo2sH2MjQ-111" value="Update exhibit&#39;s average rating" style="html=1;align=center;verticalAlign=top;rounded=1;absoluteArcSize=1;arcSize=10;dashed=0;whiteSpace=wrap;" parent="phIQyZDRnnglo2sH2MjQ-112" vertex="1">
          <mxGeometry x="790" y="790" width="140" height="40" as="geometry" />
        </mxCell>
        <mxCell id="phIQyZDRnnglo2sH2MjQ-3" value="" style="ellipse;fillColor=strokeColor;html=1;" parent="phIQyZDRnnglo2sH2MjQ-112" vertex="1">
          <mxGeometry x="370" y="90" width="20" height="20" as="geometry" />
        </mxCell>
        <mxCell id="phIQyZDRnnglo2sH2MjQ-47" style="edgeStyle=orthogonalEdgeStyle;rounded=0;orthogonalLoop=1;jettySize=auto;html=1;exitX=1;exitY=0;exitDx=0;exitDy=0;entryX=0.5;entryY=0;entryDx=0;entryDy=0;" parent="phIQyZDRnnglo2sH2MjQ-112" source="phIQyZDRnnglo2sH2MjQ-3" target="phIQyZDRnnglo2sH2MjQ-3" edge="1">
          <mxGeometry relative="1" as="geometry" />
        </mxCell>
        <mxCell id="phIQyZDRnnglo2sH2MjQ-19" value="Prompt user to complete setup" style="html=1;align=center;verticalAlign=top;rounded=1;absoluteArcSize=1;arcSize=10;dashed=0;whiteSpace=wrap;" parent="phIQyZDRnnglo2sH2MjQ-112" vertex="1">
          <mxGeometry x="125" y="310" width="120" height="40" as="geometry" />
        </mxCell>
        <mxCell id="phIQyZDRnnglo2sH2MjQ-62" value="Profile succesfully set up" style="html=1;align=center;verticalAlign=top;rounded=1;absoluteArcSize=1;arcSize=10;dashed=0;whiteSpace=wrap;" parent="phIQyZDRnnglo2sH2MjQ-112" vertex="1">
          <mxGeometry x="320" y="470" width="120" height="40" as="geometry" />
        </mxCell>
        <mxCell id="phIQyZDRnnglo2sH2MjQ-65" value="Select &#39;&#39;Personalized Route Generation&#39;&#39;" style="html=1;align=center;verticalAlign=top;rounded=1;absoluteArcSize=1;arcSize=10;dashed=0;whiteSpace=wrap;" parent="phIQyZDRnnglo2sH2MjQ-112" vertex="1">
          <mxGeometry x="320" y="585" width="120" height="40" as="geometry" />
        </mxCell>
        <mxCell id="phIQyZDRnnglo2sH2MjQ-64" style="edgeStyle=orthogonalEdgeStyle;rounded=0;orthogonalLoop=1;jettySize=auto;html=1;exitX=0.5;exitY=1;exitDx=0;exitDy=0;entryX=0.5;entryY=0;entryDx=0;entryDy=0;" parent="phIQyZDRnnglo2sH2MjQ-112" source="phIQyZDRnnglo2sH2MjQ-62" target="phIQyZDRnnglo2sH2MjQ-65" edge="1">
          <mxGeometry relative="1" as="geometry">
            <mxPoint x="372" y="600" as="targetPoint" />
          </mxGeometry>
        </mxCell>
        <mxCell id="phIQyZDRnnglo2sH2MjQ-72" value="PreferencesÂ &#xa;are saved" style="rhombus;" parent="phIQyZDRnnglo2sH2MjQ-112" vertex="1">
          <mxGeometry x="336.88" y="680" width="86.25" height="90" as="geometry" />
        </mxCell>
        <mxCell id="phIQyZDRnnglo2sH2MjQ-73" style="edgeStyle=orthogonalEdgeStyle;rounded=0;orthogonalLoop=1;jettySize=auto;html=1;exitX=0.5;exitY=1;exitDx=0;exitDy=0;entryX=0.5;entryY=0;entryDx=0;entryDy=0;" parent="phIQyZDRnnglo2sH2MjQ-112" source="phIQyZDRnnglo2sH2MjQ-65" target="phIQyZDRnnglo2sH2MjQ-72" edge="1">
          <mxGeometry relative="1" as="geometry" />
        </mxCell>
        <mxCell id="phIQyZDRnnglo2sH2MjQ-83" value="Generate route" style="html=1;align=center;verticalAlign=top;rounded=1;absoluteArcSize=1;arcSize=10;dashed=0;whiteSpace=wrap;" parent="phIQyZDRnnglo2sH2MjQ-112" vertex="1">
          <mxGeometry x="320.01" y="860" width="120" height="40" as="geometry" />
        </mxCell>
        <mxCell id="phIQyZDRnnglo2sH2MjQ-84" style="edgeStyle=orthogonalEdgeStyle;rounded=0;orthogonalLoop=1;jettySize=auto;html=1;exitX=0.5;exitY=1;exitDx=0;exitDy=0;" parent="phIQyZDRnnglo2sH2MjQ-112" source="phIQyZDRnnglo2sH2MjQ-72" target="phIQyZDRnnglo2sH2MjQ-83" edge="1">
          <mxGeometry relative="1" as="geometry" />
        </mxCell>
        <mxCell id="Z18ovfmDug6ZdBSYFSkU-1" style="edgeStyle=orthogonalEdgeStyle;rounded=0;orthogonalLoop=1;jettySize=auto;html=1;" edge="1" parent="phIQyZDRnnglo2sH2MjQ-112" source="phIQyZDRnnglo2sH2MjQ-83" target="phIQyZDRnnglo2sH2MjQ-90">
          <mxGeometry relative="1" as="geometry" />
        </mxCell>
        <mxCell id="Z18ovfmDug6ZdBSYFSkU-6" style="edgeStyle=orthogonalEdgeStyle;rounded=0;orthogonalLoop=1;jettySize=auto;html=1;entryX=0.5;entryY=1;entryDx=0;entryDy=0;" edge="1" parent="phIQyZDRnnglo2sH2MjQ-112" source="phIQyZDRnnglo2sH2MjQ-79" target="phIQyZDRnnglo2sH2MjQ-19">
          <mxGeometry relative="1" as="geometry" />
        </mxCell>
        <mxCell id="phIQyZDRnnglo2sH2MjQ-79" value="Inform user that route cannot be generated" style="html=1;align=center;verticalAlign=top;rounded=1;absoluteArcSize=1;arcSize=10;dashed=0;whiteSpace=wrap;" parent="phIQyZDRnnglo2sH2MjQ-112" vertex="1">
          <mxGeometry x="122.5" y="705" width="125" height="40" as="geometry" />
        </mxCell>
        <mxCell id="phIQyZDRnnglo2sH2MjQ-74" style="edgeStyle=orthogonalEdgeStyle;rounded=0;orthogonalLoop=1;jettySize=auto;html=1;entryX=1;entryY=0.5;entryDx=0;entryDy=0;" parent="phIQyZDRnnglo2sH2MjQ-112" source="phIQyZDRnnglo2sH2MjQ-72" target="phIQyZDRnnglo2sH2MjQ-79" edge="1">
          <mxGeometry relative="1" as="geometry">
            <mxPoint x="270" y="710" as="targetPoint" />
          </mxGeometry>
        </mxCell>
        <mxCell id="phIQyZDRnnglo2sH2MjQ-105" value="Select rating for exhibit" style="html=1;align=center;verticalAlign=top;rounded=1;absoluteArcSize=1;arcSize=10;dashed=0;whiteSpace=wrap;" parent="phIQyZDRnnglo2sH2MjQ-112" vertex="1">
          <mxGeometry x="790" y="520" width="140" height="40" as="geometry" />
        </mxCell>
        <mxCell id="phIQyZDRnnglo2sH2MjQ-110" value="Update user&#39;s rating for exhibit" style="html=1;align=center;verticalAlign=top;rounded=1;absoluteArcSize=1;arcSize=10;dashed=0;whiteSpace=wrap;" parent="phIQyZDRnnglo2sH2MjQ-112" vertex="1">
          <mxGeometry x="790" y="690" width="140" height="40" as="geometry" />
        </mxCell>
        <mxCell id="phIQyZDRnnglo2sH2MjQ-109" style="edgeStyle=orthogonalEdgeStyle;rounded=0;orthogonalLoop=1;jettySize=auto;html=1;exitX=0.5;exitY=1;exitDx=0;exitDy=0;entryX=0.5;entryY=0;entryDx=0;entryDy=0;" parent="phIQyZDRnnglo2sH2MjQ-112" source="phIQyZDRnnglo2sH2MjQ-105" target="phIQyZDRnnglo2sH2MjQ-110" edge="1">
          <mxGeometry relative="1" as="geometry">
            <Array as="points">
              <mxPoint x="860" y="640" />
              <mxPoint x="860" y="640" />
            </Array>
            <mxPoint x="844.8600000000001" y="637.3000000000002" as="targetPoint" />
          </mxGeometry>
        </mxCell>
        <mxCell id="Z18ovfmDug6ZdBSYFSkU-3" style="edgeStyle=orthogonalEdgeStyle;rounded=0;orthogonalLoop=1;jettySize=auto;html=1;" edge="1" parent="phIQyZDRnnglo2sH2MjQ-112" source="phIQyZDRnnglo2sH2MjQ-110" target="phIQyZDRnnglo2sH2MjQ-111">
          <mxGeometry relative="1" as="geometry" />
        </mxCell>
      </root>
    </mxGraphModel>
  </diagram>
</mxfile>
